<?xml version="1.0" encoding="iso-8859-1"?>
<!-- Uploaded to: SVG Repo, www.svgrepo.com, Generator: SVG Repo Mixer Tools -->
<svg height="800px" width="800px" version="1.1" id="Layer_1" xmlns="http://www.w3.org/2000/svg" xmlns:xlink="http://www.w3.org/1999/xlink" 
	 viewBox="0 0 512 512" xml:space="preserve">
<path style="fill:#898890;" d="M486.166,364.591c0-81.281-66.128-147.409-147.409-147.409h-59.482v46.55h59.482
	c55.614,0,100.859,45.245,100.859,100.859S394.371,465.45,338.757,465.45H173.243c-55.614,0-100.859-45.245-100.859-100.859
	s45.245-100.859,100.859-100.859h59.482v-46.55h-59.482c-81.281,0-147.409,66.128-147.409,147.409S91.962,512,173.243,512h165.514
	C420.038,512,486.166,445.872,486.166,364.591z"/>
<path style="fill:#57565C;" d="M232.725,364.591c0,12.854,10.421,23.275,23.275,23.275s23.275-10.421,23.275-23.275V263.732v-46.55
	v-69.825c0,12.854-10.421,23.275-23.275,23.275h-23.275v46.55v46.55V364.591z"/>
<path style="fill:#FF6243;" d="M256,0h-93.1h-93.1C56.945,0,46.524,10.421,46.524,23.275v124.081
	c0,12.854,10.421,23.275,23.275,23.275h93.1h69.825H256c12.854,0,23.275-10.421,23.275-23.275V23.275
	C279.275,10.421,268.854,0,256,0z"/>
<path style="fill:#FF0C38;" d="M69.799,0C56.945,0,46.524,10.421,46.524,23.275v124.081c0,12.854,10.421,23.275,23.275,23.275h93.1
	V0H69.799z"/>
</svg>